# xmcd
#
# Track frame offsets: 
#        183
#        27608
#        37295
#        47870
#        64358
#        76745
#        95995
#        106083
#        117220
#        133933
#        145308
#        156433
#        168508
#        174345
#        189845
#
# Disc length: 2716 seconds
#
# Revision: 1
# Processed by: cddbd v1.5.2PL0 Copyright (c) Steve Scherf et al.
# Submitted via: ExactAudioCopy v1.1
#
DISCID=da0a9a0f
DTITLE=Burrito Brothers - Back To The Sweethearts Of The Rodeo [CD2)
DYEAR=1990
DGENRE=Country
TTITLE0=Like A Shadow
TTITLE1=I Don't Believe You Meet My Baby
TTITLE2=My Heart Skips A Beat
TTITLE3=Take A Message To Mary
TTITLE4=Last Call
TTITLE5=Burn The Midnight Oil
TTITLE6=Should We Tell Him
TTITLE7=You're Running Wild
TTITLE8=This Could Be The Night
TTITLE9=My Shoes Keep Walking Back To You
TTITLE10=You Should Know Me By Now
TTITLE11=I've Got A New Heartache
TTITLE12=Roadmaster
TTITLE13=One Man Woman
TTITLE14=Do You Know Mary Lou
EXTD=YEAR: 1990
EXTT0=
EXTT1=
EXTT2=
EXTT3=
EXTT4=
EXTT5=
EXTT6=
EXTT7=
EXTT8=
EXTT9=
EXTT10=
EXTT11=
EXTT12=
EXTT13=
EXTT14=
PLAYORDER=
